
        <svg xmlns="http://www.w3.org/2000/svg" xmlns:xlink="http://www.w3.org/1999/xlink" version="1.1" width="3200" 
        height="2789.580479936947" viewBox="0 0 3200 2789.580479936947">
			
			<g transform="scale(9.999999999999998) translate(10, 10)">
				<defs id="SvgjsDefs1368"><linearGradient id="SvgjsLinearGradient1373"><stop id="SvgjsStop1374" stop-color="#b98947" offset="0"></stop><stop id="SvgjsStop1375" stop-color="#faf0a1" offset="1"></stop></linearGradient><linearGradient id="SvgjsLinearGradient1376"><stop id="SvgjsStop1377" stop-color="#b98947" offset="0"></stop><stop id="SvgjsStop1378" stop-color="#faf0a1" offset="1"></stop></linearGradient></defs><g id="SvgjsG1369" featureKey="symbolFeature-0" transform="matrix(1.8525951177247553,0,0,1.8525951177247553,66.63321970238601,-4.631487794311888)" fill="url(#SvgjsLinearGradient1373)"><path xmlns="http://www.w3.org/2000/svg" fill="url(#SvgjsLinearGradient1373)" d="M77.387,54.566C77.387,36.678,62.888,2.5,45.002,2.5c-17.889,0-32.389,34.178-32.389,52.066  c0,14.104,9.027,26.067,21.608,30.514c-10.54,0.187-17.982,0.638-17.982,1.164c0,0.693,12.877,1.256,28.761,1.256  s28.761-0.562,28.761-1.256c0-0.526-7.441-0.978-17.981-1.164C68.358,80.634,77.387,68.67,77.387,54.566z M16.055,50.134  c0-15.983,12.96-46.529,28.945-46.529c7.717,0,14.723,7.124,19.911,16.285l-11.382,4.373l0.034-0.165l-7.907-0.677l6.822,2.367  L49.135,39.54l-9.576,3.105l-0.061,0.019L39.48,42.72l-1.69,5.119l1.893-4.981l9.842-2.717l0.179-0.049l0.056-0.193l4.156-14.305  l11.934-3.989c5.011,9.488,8.097,20.737,8.097,28.529C73.945,66.121,60.986,79.08,45,79.08  C29.015,79.08,16.055,66.121,16.055,50.134z"></path></g><g id="SvgjsG1370" featureKey="nameFeature-0" transform="matrix(2.2225545744382487,0,0,2.2225545744382487,-3.039344058814134,153.99344774388803)" fill="url(#SvgjsLinearGradient1376)"><path d="M22.832 27.266 l-11.777 19.961 l-9.6875 0 l5.3516 -8.8281 c-0.33203 -3.6328 -0.91797 -7.3633 -1.4844 -11.133 l-1.7773 0 c-0.44922 -3.0859 -0.89844 -6.1914 -1.25 -9.2188 l9.5508 0 l0.78125 8.3398 l0.039063 -0.058594 c0 -0.039063 0.039063 -0.039063 0.039063 -0.097656 c1.4844 -2.7148 2.9102 -5.4297 4.4141 -8.1836 l9.3945 0 l-5.4297 9.2188 l1.8359 0 z M49.0234375 29.082 c-1.6211 7.1094 -6.8164 11.641 -14.199 11.641 c-7.207 0 -10.547 -4.3359 -8.8672 -11.641 c0.13672 -0.58594 0.29297 -1.1914 0.52734 -1.7383 l-2.0117 0 c2.0898 -6.1914 7.0313 -9.9414 13.75 -9.9414 c6.9141 0 9.8633 4.043 9.1406 9.9414 l1.9727 0 c-0.058594 0.54688 -0.17578 1.1523 -0.3125 1.7383 z M33.8284375 27.344 l1.9531 0 c-1.1133 2.9297 -1.3281 6.7578 0.60547 6.7578 c1.7773 0 3.3594 -3.8281 3.5938 -6.7578 l-1.9336 0 c0.15625 -1.8359 -0.21484 -3.3203 -1.3672 -3.3203 c-1.0742 0 -2.1484 1.4844 -2.8516 3.3203 z M51.97263125 27.578 l-2.1289 0 l3.9648 -17.109 l9.2383 0 l-3.9258 17.109 l2.1094 0 l-2.8906 12.422 l-9.2773 0 z M79.76584375 27.773 l4.9805 12.305 l-10.625 0 l-2.1094 -5.6641 l-1.3086 5.6641 l-9.2383 0 l2.9297 -12.734 l-1.9727 0 l3.9063 -16.953 l9.2188 0 l-2.7344 11.875 c1.3867 -1.3477 2.6758 -2.8125 4.043 -4.1992 l10.762 -0.019531 l-9.375 9.2969 l1.9531 0 z M87.2851875 29.141 c0.15625 -0.66406 0.37109 -1.25 0.56641 -1.875 l-2.168 0 c4.6875 -12.754 24.766 -14.023 22.168 0 l2.1875 0 c-0.039063 0.23438 -0.039063 0.46875 -0.097656 0.72266 l-0.83984 3.2617 l-12.93 0 c-0.66406 4.8242 8.4961 3.3594 9.3945 1.6211 l2.9883 0 l-1.4258 5.5664 c-7.7148 4.4336 -22.715 3.3203 -19.844 -9.2969 z M101.1326875 25.371000000000002 c0.42969 -2.1289 -4.2578 -3.3398 -6.4648 0 c0.019531 0 6.4648 0.019531 6.4648 0 z M134.70665625 27.266 l-2.8906 12.734 l-9.2383 0 l0.15625 -1.0352 c-8.8281 3.5547 -12.344 -1.7578 -10.469 -9.7852 c0.13672 -0.64453 0.25391 -1.2305 0.52734 -1.9141 l-2.168 0 c2.168 -5.957 8.125 -11.777 14.805 -9.375 l0.039063 0 l1.7383 -7.5391 l9.1406 0 l-3.8672 16.914 l2.2266 0 z M119.41365625 27.266 l2.207 0 c-1.6406 3.2031 -1.3867 7.4805 2.5391 5.8008 l1.3672 -5.8008 l-2.2266 0 l0.66406 -2.8125 c-1.9336 -0.44922 -3.6133 0.91797 -4.5508 2.8125 z M124.16065625 33.0664 c0.097656 -0.039063 0.19531 -0.097656 0.25391 -0.13672 c0 0 -0.058594 0.039063 -0.25391 0.13672 z"></path></g>
			</g>
		</svg>
	